<svg width="523" height="166" viewBox="0 0 523 166" fill="none" xmlns="http://www.w3.org/2000/svg">
<path fill-rule="evenodd" clip-rule="evenodd" d="M120.229 59.7644L89.3155 59.7644V90.9754L74.7219 90.9754L74.7219 59.7644L43.5109 59.7644L43.5109 45.1708L74.7219 45.1708L74.7219 14.2571L89.3155 14.2571V45.1708L120.229 45.1708V59.7644Z" fill="black"/>
<path fill-rule="evenodd" clip-rule="evenodd" d="M58.6475 69.3858C58.6475 69.3892 58.6475 69.3927 51.0233 69.3927C43.3992 69.3927 43.3992 69.3892 43.3992 69.3858L43.3992 69.372L43.3986 69.4161C43.3977 69.4704 43.3956 69.5699 43.3909 69.7117C43.3815 69.9955 43.3614 70.447 43.3189 71.0419C43.2337 72.2344 43.0596 73.9877 42.7056 76.1117C41.9916 80.3958 40.5778 85.9914 37.8261 91.4947C35.0894 96.9682 31.1041 102.21 25.2687 106.1C19.4811 109.958 11.4217 112.792 8.59796e-06 112.792L7.62939e-06 128.04C14.0899 128.04 25.1643 124.496 33.727 118.787C37.4975 116.274 40.6928 113.4 43.3991 110.345L43.3991 151.257H58.6475L58.6475 110.345C61.3538 113.4 64.5491 116.274 68.3196 118.787C76.8824 124.496 87.9567 128.04 102.047 128.04V112.792C90.6249 112.792 82.5655 109.958 76.7779 106.1C70.9426 102.21 66.9572 96.9682 64.2205 91.4947C61.4688 85.9914 60.055 80.3958 59.341 76.1117C58.987 73.9877 58.8129 72.2344 58.7278 71.0419C58.6853 70.447 58.6652 69.9955 58.6557 69.7117C58.651 69.5699 58.6489 69.4704 58.6481 69.4161L58.6475 69.372L58.6475 69.3858ZM58.6475 69.372C58.6474 69.3681 58.6474 69.3692 58.6474 69.3692Z" fill="black"/>
<path d="M500.307 70.3918C489.955 70.3918 484.572 64.8018 484.572 56.9345C484.572 54.3466 485.193 50.62 486.021 46.6863L489.023 32.4009H481.674L484.572 18.219H491.818L502.998 5.48641H512.315L509.52 18.219H522.563L519.561 32.4009H506.621L503.412 47.2039C502.895 49.5848 502.688 51.3446 502.688 52.5868C502.688 54.6571 504.033 56.2099 507.139 56.2099C509.313 56.2099 511.487 55.5888 512.522 55.1747L511.694 68.3214C511.694 68.3214 507.45 70.3918 500.307 70.3918Z" fill="black"/>
<path d="M480.302 18.219L475.851 34.8853C475.54 34.7818 474.298 34.4713 472.435 34.4713C467.57 34.4713 462.497 37.1627 459.392 41.3034L453.388 69.3566H436.1L446.97 18.219H459.599L461.151 26.5004H461.462C465.81 18.5296 470.882 17.3909 475.54 17.3909C477.818 17.3909 479.888 18.012 480.302 18.219Z" fill="black"/>
<path d="M407.229 70.3918C391.184 70.3918 382.385 61.4893 382.385 49.2742C382.385 32.9185 392.841 17.1839 413.855 17.1839C427.726 17.1839 434.351 22.9808 434.351 31.3657C434.351 36.231 432.384 42.028 430.003 46.8933H399.776V47.5144C399.776 53.2079 401.847 57.2451 411.06 57.2451C417.167 57.2451 423.068 55.0712 425.759 53.829L427.105 66.044C423.275 68.3214 416.65 70.3918 407.229 70.3918ZM412.509 28.1567C407.126 28.1567 403.399 31.7798 401.432 37.0592H416.857C417.374 35.6099 417.995 33.3326 417.995 31.7798C417.995 29.3989 416.339 28.1567 412.509 28.1567Z" fill="black"/>
<path d="M355.881 69.3566H335.281L329.587 18.219H347.082L349.049 37.4733C349.256 40.0612 349.566 50.3094 349.566 50.3094H349.98C349.98 50.3094 353.603 41.5104 355.881 37.4733L366.854 18.219H386.522L355.881 69.3566Z" fill="black"/>
<path d="M263.437 69.3566L274.306 18.219H287.142L289.005 25.8793H289.42C293.457 20.1859 298.529 17.1839 306.707 17.1839C316.955 17.1839 321.924 23.7055 321.924 31.2622C321.924 34.2642 321.303 38.0944 320.578 41.0964L314.574 69.3566H297.08L303.084 41.0964C303.498 39.026 303.705 37.4733 303.705 36.231C303.705 33.8502 302.152 31.8833 298.426 31.8833C294.388 31.8833 290.765 33.6431 287.763 37.5768L281.035 69.3566H263.437Z" fill="black"/>
<path d="M237.453 17.1839C252.774 17.1839 260.641 26.7075 260.641 38.7155C260.641 55.8993 248.012 70.3918 229.068 70.3918C214.369 70.3918 205.88 61.4893 205.88 48.6531C205.88 31.5728 219.441 17.1839 237.453 17.1839ZM235.693 31.3657C228.344 31.3657 223.271 39.1295 223.271 47.5144C223.271 53.2079 225.963 56.2099 230.828 56.2099C238.074 56.2099 243.25 48.2391 243.25 39.9577C243.25 34.1607 240.766 31.3657 235.693 31.3657Z" fill="black"/>
<path d="M172.113 70.5988C152.651 70.5988 140.229 57.7626 140.229 39.2331C140.229 18.3226 156.999 0 181.74 0C193.644 0 201.512 4.24421 205.859 8.28138L197.785 22.5668C193.955 19.0472 188.365 16.6663 181.947 16.6663C169.939 16.6663 160.208 25.6723 160.208 38.1979C160.208 48.032 165.798 53.9325 176.15 53.9325C183.292 53.9325 189.504 51.6551 194.369 48.3426L197.06 63.3526C191.884 67.0792 183.396 70.5988 172.113 70.5988Z" fill="black"/>
<path d="M390.36 165.307C380.216 165.307 373.383 161.58 370.795 159.717L375.557 148.227C378.352 150.297 384.253 152.989 390.05 152.989C395.225 152.989 397.296 150.918 397.296 148.123C397.296 146.985 396.882 145.949 395.64 145.225C394.501 144.604 391.395 143.568 388.393 142.326C385.081 140.981 382.596 139.635 380.837 137.875C378.766 135.805 377.421 133.113 377.421 129.697C377.421 119.552 386.323 112.099 400.712 112.099C409.407 112.099 415.515 114.791 418.31 116.55L413.652 128.144C410.235 126.074 405.474 124.418 400.608 124.418C396.571 124.418 394.811 126.281 394.811 128.351C394.811 129.18 395.122 129.904 395.95 130.422C397.089 131.146 400.194 132.285 402.886 133.32C406.095 134.666 409.2 136.322 410.96 138.082C413.548 140.566 414.687 143.672 414.687 147.088C414.687 157.647 405.888 165.307 390.36 165.307Z" fill="black"/>
<path d="M353.088 113.134H373.378L351.846 139.117V139.221L364.372 164.272H345.221L335.387 144.811H332.281L328.141 164.272H310.646L327.416 85.5988H344.91L335.18 131.25H337.975L353.088 113.134Z" fill="black"/>
<path d="M287.932 165.307C270.231 165.307 263.502 154.127 263.502 143.258C263.502 127.42 275.303 112.099 294.764 112.099C303.149 112.099 308.325 114.377 311.12 116.24L305.944 129.283C303.253 127.523 299.526 126.281 296.214 126.281C287.725 126.281 281.411 133.01 281.411 141.912C281.411 146.881 284.309 151.125 291.762 151.125C295.386 151.125 299.94 149.572 302.632 148.123L304.184 161.373C300.872 163.444 294.35 165.307 287.932 165.307Z" fill="black"/>
<path d="M249.391 164.272H231.896L242.766 113.134H260.26L249.391 164.272ZM244.318 96.9857C244.318 92.1204 247.734 88.4973 254.463 88.4973C261.088 88.4973 264.504 92.1204 264.504 96.9857C264.504 101.851 261.088 105.474 254.463 105.474C247.734 105.474 244.318 101.851 244.318 96.9857Z" fill="black"/>
<path d="M203.085 164.272L219.855 85.5988H237.35L220.683 164.272H203.085Z" fill="black"/>
<path d="M172.113 165.514C152.651 165.514 140.229 152.678 140.229 134.148C140.229 113.238 156.999 94.9154 181.74 94.9154C193.644 94.9154 201.512 99.1596 205.859 103.197L197.785 117.482C193.955 113.963 188.365 111.582 181.947 111.582C169.939 111.582 160.208 120.588 160.208 133.113C160.208 142.947 165.798 148.848 176.15 148.848C183.292 148.848 189.504 146.57 194.369 143.258L197.06 158.268C191.884 161.995 183.396 165.514 172.113 165.514Z" fill="black"/>
</svg>
