<svg width="334" height="334" viewBox="0 0 334 334" fill="none" xmlns="http://www.w3.org/2000/svg">
<rect width="334" height="334" rx="60" fill="black"/>
<path fill-rule="evenodd" clip-rule="evenodd" d="M280 123.324L221.949 123.324L221.949 181.933L194.545 181.933L194.545 123.324L135.936 123.324L135.936 95.9193L194.545 95.9193L194.545 37.8684L221.949 37.8684L221.949 95.9193L280 95.9193L280 123.324Z" fill="#FB9804"/>
<path fill-rule="evenodd" clip-rule="evenodd" d="M164.36 141.391C164.36 141.397 164.36 141.404 150.043 141.404C135.726 141.404 135.726 141.397 135.726 141.391L135.726 141.38L135.726 141.365L135.725 141.448C135.723 141.55 135.719 141.737 135.71 142.003C135.692 142.536 135.655 143.384 135.575 144.501C135.415 146.74 135.088 150.033 134.423 154.021C133.083 162.066 130.428 172.574 125.26 182.908C120.121 193.186 112.638 203.029 101.68 210.334C90.8116 217.58 75.6773 222.9 54.2292 222.9L54.2292 251.534C80.6878 251.534 101.484 244.879 117.563 234.159C124.643 229.439 130.644 224.042 135.726 218.306L135.726 295.132L164.36 295.132L164.36 218.306C169.442 224.042 175.442 229.439 182.522 234.159C198.602 244.879 219.397 251.534 245.856 251.534L245.856 222.9C224.408 222.9 209.274 217.58 198.406 210.334C187.448 203.029 179.964 193.186 174.825 182.908C169.658 172.574 167.003 162.066 165.662 154.021C164.997 150.033 164.67 146.74 164.51 144.501C164.431 143.384 164.393 142.536 164.375 142.003C164.366 141.737 164.362 141.55 164.361 141.448L164.36 141.365L164.36 141.38L164.36 141.391ZM164.36 141.365C164.359 141.358 164.359 141.36 164.359 141.36Z" fill="#FB9804"/>
</svg>
