<?xml version="1.0" standalone="no"?>
<!DOCTYPE svg PUBLIC "-//W3C//DTD SVG 20010904//EN"
 "http://www.w3.org/TR/2001/REC-SVG-20010904/DTD/svg10.dtd">
<svg version="1.0" xmlns="http://www.w3.org/2000/svg"
 width="700.000000pt" height="700.000000pt" viewBox="0 0 700.000000 700.000000"
 preserveAspectRatio="xMidYMid meet">
<metadata>
Created by potrace 1.14, written by Peter Selinger 2001-2017
</metadata>
<g transform="translate(0.000000,700.000000) scale(0.100000,-0.100000)"
fill="#000000" stroke="none">
<path d="M1120 6993 c-280 -31 -548 -160 -750 -363 -178 -177 -291 -386 -346
-640 -18 -82 -19 -179 -19 -2490 0 -2311 1 -2408 19 -2490 55 -254 168 -463
346 -640 177 -178 386 -291 640 -346 82 -18 179 -19 2490 -19 2311 0 2408 1
2490 19 254 55 465 169 640 345 178 179 291 387 346 641 18 82 19 179 19 2490
0 2311 -1 2408 -19 2490 -110 501 -458 856 -966 983 l-85 21 -2385 2 c-1312 0
-2401 -1 -2420 -3z m3530 -1398 l0 -605 610 0 610 0 0 -285 0 -285 -610 0
-610 0 0 -615 0 -615 -285 0 -285 0 0 615 0 615 -615 0 -615 0 0 285 0 285
615 0 615 0 0 605 0 605 285 0 285 0 0 -605z m-1210 -1577 c1 -90 48 -364 86
-495 212 -744 728 -1158 1482 -1190 l142 -6 0 -300 0 -300 -132 7 c-618 33
-1104 228 -1477 594 -51 51 -95 92 -97 92 -2 0 -4 -360 -4 -800 l0 -800 -295
0 -295 0 0 800 c0 440 -2 800 -5 800 -2 0 -46 -41 -96 -91 -373 -366 -858
-562 -1476 -595 l-133 -7 0 302 0 301 88 0 c322 0 660 99 914 266 105 70 300
268 377 384 161 243 290 613 316 905 3 39 8 87 11 108 l6 37 294 0 c228 0 294
-3 294 -12z"/>
</g>
</svg>
